<?xml version="1.0" encoding="UTF-8"?>
<svg height="16px" viewBox="0 0 16 16" width="16px" xmlns="http://www.w3.org/2000/svg">
    <g fill="#241f31">
        <path d="m 1 14 h 1 v 1 h -1 z m 0 0"/>
        <path d="m 2 14 h 1 v 1 h -1 z m 0 0"/>
        <path d="m 2 13 h 1 v 1 h -1 z m 0 0"/>
        <path d="m 1 13 h 1 v 1 h -1 z m 0 0"/>
        <path d="m 1 12 h 1 v 1 h -1 z m 0 0"/>
        <path d="m 2 12 h 1 v 1 h -1 z m 0 0"/>
        <path d="m 1 11 h 1 v 1 h -1 z m 0 0"/>
        <path d="m 2 11 h 1 v 1 h -1 z m 0 0"/>
        <path d="m 3 11 h 1 v 1 h -1 z m 0 0"/>
        <path d="m 2 10 h 1 v 1 h -1 z m 0 0"/>
        <path d="m 2 9 h 1 v 1 h -1 z m 0 0"/>
        <path d="m 2 8 h 1 v 1 h -1 z m 0 0"/>
        <path d="m 3 8 h 1 v 1 h -1 z m 0 0"/>
        <path d="m 3 7 h 1 v 1 h -1 z m 0 0"/>
        <path d="m 4 7 h 1 v 1 h -1 z m 0 0"/>
        <path d="m 5 7 h 1 v 1 h -1 z m 0 0"/>
        <path d="m 6 7 h 1 v 1 h -1 z m 0 0"/>
        <path d="m 7 7 h 1 v 1 h -1 z m 0 0"/>
        <path d="m 8 7 h 1 v 1 h -1 z m 0 0"/>
        <path d="m 9 7 h 1 v 1 h -1 z m 0 0"/>
        <path d="m 10 7 h 1 v 1 h -1 z m 0 0"/>
        <path d="m 4 11 h 1 v 1 h -1 z m 0 0"/>
        <path d="m 5 11 h 1 v 1 h -1 z m 0 0"/>
        <path d="m 6 11 h 1 v 1 h -1 z m 0 0"/>
        <path d="m 7 11 h 1 v 1 h -1 z m 0 0"/>
        <path d="m 8 11 h 1 v 1 h -1 z m 0 0"/>
        <path d="m 9 11 h 1 v 1 h -1 z m 0 0"/>
        <path d="m 10 11 h 1 v 1 h -1 z m 0 0"/>
        <path d="m 11 11 h 1 v 1 h -1 z m 0 0"/>
        <path d="m 12 11 h 1 v 1 h -1 z m 0 0"/>
        <path d="m 12 10 h 1 v 1 h -1 z m 0 0"/>
        <path d="m 12 9 h 1 v 1 h -1 z m 0 0"/>
        <path d="m 12 8 h 1 v 1 h -1 z m 0 0"/>
        <path d="m 11 8 h 1 v 1 h -1 z m 0 0"/>
        <path d="m 11 7 h 1 v 1 h -1 z m 0 0"/>
        <path d="m 13 11 h 1 v 1 h -1 z m 0 0"/>
        <path d="m 12 12 h 1 v 1 h -1 z m 0 0"/>
        <path d="m 13 13 h 1 v 1 h -1 z m 0 0"/>
        <path d="m 13 12 h 1 v 1 h -1 z m 0 0"/>
        <path d="m 13 14 h 1 v 1 h -1 z m 0 0"/>
        <path d="m 12 13 h 1 v 1 h -1 z m 0 0"/>
        <path d="m 12 14 h 1 v 1 h -1 z m 0 0"/>
        <path d="m 5 14 h 1 v 1 h -1 z m 0 0"/>
        <path d="m 6 14 h 1 v 1 h -1 z m 0 0"/>
        <path d="m 7 14 h 1 v 1 h -1 z m 0 0"/>
        <path d="m 8 14 h 1 v 1 h -1 z m 0 0"/>
        <path d="m 9 14 h 1 v 1 h -1 z m 0 0"/>
        <path d="m 11 12 h 1 v 1 h -1 z m 0 0"/>
        <path d="m 10 12 h 1 v 1 h -1 z m 0 0"/>
        <path d="m 9 12 h 1 v 1 h -1 z m 0 0"/>
        <path d="m 8 12 h 1 v 1 h -1 z m 0 0"/>
        <path d="m 7 12 h 1 v 1 h -1 z m 0 0"/>
        <path d="m 6 12 h 1 v 1 h -1 z m 0 0"/>
        <path d="m 5 12 h 1 v 1 h -1 z m 0 0"/>
        <path d="m 4 12 h 1 v 1 h -1 z m 0 0"/>
        <path d="m 3 12 h 1 v 1 h -1 z m 0 0"/>
        <path d="m 4 14 h 1 v 1 h -1 z m 0 0"/>
        <path d="m 10 14 h 1 v 1 h -1 z m 0 0"/>
        <path d="m 5 9 h 1 v 1 h -1 z m 0 0"/>
        <path d="m 6 9 h 1 v 1 h -1 z m 0 0"/>
        <path d="m 8 6 h 1 v 1 h -1 z m 0 0"/>
        <path d="m 9 6 h 1 v 1 h -1 z m 0 0"/>
        <path d="m 9 5 h 1 v 1 h -1 z m 0 0"/>
        <path d="m 8 5 h 1 v 1 h -1 z m 0 0"/>
        <path d="m 8 4 h 1 v 1 h -1 z m 0 0"/>
        <path d="m 9 4 h 1 v 1 h -1 z m 0 0"/>
        <path d="m 8 2 h 1 v 1 h -1 z m 0 0"/>
        <path d="m 9 2 h 1 v 1 h -1 z m 0 0"/>
        <path d="m 10 2 h 1 v 1 h -1 z m 0 0"/>
        <path d="m 11 3 h 1 v 1 h -1 z m 0 0"/>
        <path d="m 11 4 h 1 v 1 h -1 z m 0 0"/>
        <path d="m 6 4 h 1 v 1 h -1 z m 0 0"/>
        <path d="m 6 3 h 1 v 1 h -1 z m 0 0"/>
        <path d="m 7 2 h 1 v 1 h -1 z m 0 0"/>
        <path d="m 4 4 h 1 v 1 h -1 z m 0 0"/>
        <path d="m 4 3 h 1 v 1 h -1 z m 0 0"/>
        <path d="m 12 1 h 1 v 1 h -1 z m 0 0"/>
        <path d="m 13 2 h 1 v 1 h -1 z m 0 0"/>
        <path d="m 13 3 h 1 v 1 h -1 z m 0 0"/>
        <path d="m 13 4 h 1 v 1 h -1 z m 0 0"/>
        <path d="m 13 5 h 1 v 1 h -1 z m 0 0"/>
        <path d="m 4 5 h 1 v 1 h -1 z m 0 0"/>
        <path d="m 4 2 h 1 v 1 h -1 z m 0 0"/>
        <path d="m 5 1 h 1 v 1 h -1 z m 0 0"/>
    </g>
</svg>
