<?xml version="1.0" encoding="UTF-8"?>
<svg height="128px" viewBox="0 0 128 128" width="128px" xmlns="http://www.w3.org/2000/svg" xmlns:xlink="http://www.w3.org/1999/xlink">
    <clipPath id="a">
        <path d="m 13 81 h 102 v 26 h -102 z m 0 0"/>
    </clipPath>
    <clipPath id="b">
        <path d="m 7 75 h 114 v 38 h -114 z m 89 5 s 1.730469 0.871094 2.398438 1.539062 c 0.664062 0.664063 1.601562 2.460938 1.601562 2.460938 s 0.070312 6.496094 0.007812 8.085938 c 0.011719 2.167968 1.578126 3.914062 3.539063 3.914062 h 8.453125 s 2 1 2.523438 1.59375 c 0.777343 0.886719 1.476562 2.40625 1.476562 2.40625 c 0 -2 0.007812 -5.746094 0.007812 -7.914062 v -8.171876 c 0 -2.167968 -1.578124 -3.914062 -3.539062 -3.914062 z m 0 0"/>
    </clipPath>
    <clipPath id="c">
        <path d="m 7 75 h 114 v 38 h -114 z m 0 0"/>
    </clipPath>
    <clipPath id="d">
        <path d="m 7 75 h 114 v 38 h -114 z m 89 5 s 1.730469 0.871094 2.398438 1.539062 c 0.664062 0.664063 1.601562 2.460938 1.601562 2.460938 s 0.070312 6.496094 0.007812 8.085938 c 0.011719 2.167968 1.578126 3.914062 3.539063 3.914062 h 8.453125 s 2 1 2.523438 1.59375 c 0.777343 0.886719 1.476562 2.40625 1.476562 2.40625 c 0 -2 0.007812 -5.746094 0.007812 -7.914062 v -8.171876 c 0 -2.167968 -1.578124 -3.914062 -3.539062 -3.914062 z m 0 0"/>
    </clipPath>
    <path d="m 16 40 h 96 c 4.417969 0 8 3.582031 8 8 v 60 c 0 4.417969 -3.582031 8 -8 8 h -96 c -4.417969 0 -8 -3.582031 -8 -8 v -60 c 0 -4.417969 3.582031 -8 8 -8 z m 0 0" fill="#1c71d8"/>
    <path d="m 16 48 h 96 c 4.417969 0 8 3.582031 8 8 v 48 c 0 4.417969 -3.582031 8 -8 8 h -96 c -4.417969 0 -8 -3.582031 -8 -8 v -48 c 0 -4.417969 3.582031 -8 8 -8 z m 0 0" fill="#3584e4"/>
    <g clip-path="url(#a)">
        <g clip-path="url(#b)">
            <path d="m 16.027344 81.539062 h 95.945312 c 1.378906 0 2.488282 1.109376 2.488282 2.488282 v 19.945312 c 0 1.378906 -1.109376 2.488282 -2.488282 2.488282 h -95.945312 c -1.378906 0 -2.488282 -1.109376 -2.488282 -2.488282 v -19.945312 c 0 -1.378906 1.109376 -2.488282 2.488282 -2.488282 z m 0 0" fill="#ffffff"/>
        </g>
    </g>
    <g clip-path="url(#c)">
        <g clip-path="url(#d)">
            <path d="m -430.430481 248.616884 h 95.945313 c 1.378906 0 2.488281 1.109375 2.488281 2.488281 v 19.945313 c 0 1.378906 -1.109375 2.488281 -2.488281 2.488281 h -95.945313 c -1.378906 0 -2.488281 -1.109375 -2.488281 -2.488281 v -19.945313 c 0 -1.378906 1.109375 -2.488281 2.488281 -2.488281 z m 0 0" fill="none" stroke="#ffffff" stroke-width="3.07551" transform="matrix(1 0 0 1 446.457825 -167.077822)"/>
        </g>
    </g>
    <path d="m 16 40 h 96 c 4.417969 0 8 3.582031 8 8 v 20 c 0 4.417969 -3.582031 8 -8 8 h -96 c -4.417969 0 -8 -3.582031 -8 -8 v -20 c 0 -4.417969 3.582031 -8 8 -8 z m 0 0" fill="#1a5fb4"/>
    <path d="m 16 32 h 96 c 4.417969 0 8 3.582031 8 8 v 24 c 0 4.417969 -3.582031 8 -8 8 h -96 c -4.417969 0 -8 -3.582031 -8 -8 v -24 c 0 -4.417969 3.582031 -8 8 -8 z m 0 0" fill="#1c71d8"/>
    <path d="m 20 36 h 88 c 4.417969 0 8 3.582031 8 8 v 12 c 0 4.417969 -3.582031 8 -8 8 h -88 c -4.417969 0 -8 -3.582031 -8 -8 v -12 c 0 -4.417969 3.582031 -8 8 -8 z m 0 0" fill="#5e5c64"/>
    <path d="m 20 40 h 88 c 4.417969 0 8 3.582031 8 8 v 12 c 0 4.417969 -3.582031 8 -8 8 h -88 c -4.417969 0 -8 -3.582031 -8 -8 v -12 c 0 -4.417969 3.582031 -8 8 -8 z m 0 0" fill="#241f31"/>
    <g fill="#ffffff" stroke="#ffffff" stroke-width="1.61594">
        <path d="m 26.808594 54.808593 h 2.382813 v 2.382813 h -2.382813 z m 0 0"/>
        <path d="m 26.808594 50.808593 h 2.382813 v 2.382813 h -2.382813 z m 0 0"/>
        <path d="m 28.617188 52.808593 h 2.382812 v 2.382813 h -2.382812 z m 0 0"/>
        <path d="m 24.808594 56.808593 h 2.382813 v 2.382813 h -2.382813 z m 0 0"/>
        <path d="m 22.808594 58.808593 h 2.382813 v 2.382813 h -2.382813 z m 0 0"/>
        <path d="m 20.808594 60.808593 h 2.382813 v 2.382813 h -2.382813 z m 0 0"/>
        <path d="m 24.808594 48.808593 h 2.382813 v 2.382813 h -2.382813 z m 0 0"/>
        <path d="m 22.808594 46.808593 h 2.382813 v 2.382813 h -2.382813 z m 0 0"/>
        <path d="m 20.808594 44.808593 h 2.382813 v 2.382813 h -2.382813 z m 0 0"/>
        <path d="m 36.808594 60.808593 h 2.382813 v 2.382813 h -2.382813 z m 0 0"/>
        <path d="m 40.808594 60.808593 h 2.382813 v 2.382813 h -2.382813 z m 0 0"/>
        <path d="m 44.808594 60.808593 h 2.382813 v 2.382813 h -2.382813 z m 0 0"/>
    </g>
    <path d="m 108 80.425781 c 2.210938 0 4 1.34375 4 3 v 1.574219 c 0 1.65625 -1.789062 3 -4 3 s -4 -1.34375 -4 -3 v -1.574219 c 0 -1.65625 1.789062 -3 4 -3 z m 0 0" fill="#c01c28"/>
    <path d="m 108 80 c 2.210938 0 4 1.566406 4 3.5 s -1.789062 3.5 -4 3.5 s -4 -1.566406 -4 -3.5 s 1.789062 -3.5 4 -3.5 z m 0 0" fill="#e01b24"/>
    <path d="m 104 92 h 8 v 2 h -8 z m 0 0" fill="#2ec27e"/>
    <path d="m 104 90 h 8 v 2 h -8 z m 0 0" fill="#33d17a"/>
    <path d="m 88 13 h 8 v 19 h -8 z m 0 0" fill="#1a5fb4"/>
    <path d="m 88 28 h 8 v 4 h -8 z m 0 0" fill="#62a0ea"/>
    <path d="m 88 20 h 8 v 4 h -8 z m 0 0" fill="#62a0ea"/>
    <path d="m 88 12 h 8 v 4 h -8 z m 0 0" fill="#62a0ea"/>
    <path d="m 82 10 h 4 v 8 h -4 z m 0 0" fill="#c061cb"/>
    <path d="m 86 6 c -2.214844 0 -4 1.785156 -4 4 h 4 z m 0 0" fill="#c061cb"/>
    <path d="m 86 6 h 12 v 4 h -12 z m 0 0" fill="#c061cb"/>
    <path d="m 98 6 c 2.214844 0 4 1.785156 4 4 h -4 z m 0 0" fill="#c061cb"/>
    <path d="m 98 10 h 4 v 8 h -4 z m 0 0" fill="#c061cb"/>
    <path d="m 76 13 h 4 v 7 h -4 z m 0 0" fill="#dc8add"/>
    <path d="m 80 24 c -2.214844 0 -4 -1.785156 -4 -4 h 4 z m 0 0" fill="#dc8add"/>
    <path d="m 108 13 h -4 v 7 h 4 z m 0 0" fill="#dc8add"/>
    <path d="m 104 24 c 2.214844 0 4 -1.785156 4 -4 h -4 z m 0 0" fill="#dc8add"/>
    <path d="m 80 9 c -2.214844 0 -4 1.785156 -4 4 h 4 z m 0 0" fill="#dc8add"/>
    <path d="m 104 9 c 2.214844 0 4 1.785156 4 4 h -4 z m 0 0" fill="#dc8add"/>
</svg>
